# xmcd
#
# Track frame offsets:
#	150
#	3275
#	18717
#	41522
#	58457
#	79922
#	99565
#	125450
#	152122
#	158252
#	176430
#	195707
#	220625
#	236825
#	256500
#
# Disc length: 3796 seconds
#
# Revision: 1
# Processed by: cddbd v1.5.1PL0 Copyright (c) Steve Scherf et al.
# Submitted via: CDex 1.50Beta5
#
DISCID=bb0ed20f
DTITLE=SMOOTH ACE - FOR TWO-PIECE
DYEAR=2002
DGENRE=Rock
TTITLE0=FOR TWO-PIECE -Introduction-
TTITLE1=無敵
TTITLE2=手のひら
TTITLE3=星空と帰り道
TTITLE4=Honesty
TTITLE5=お願いをひとつ
TTITLE6=Soldier[Sword of Blaze MIX]
TTITLE7=What You Want
TTITLE8=太陽
TTITLE9=愛しさに
TTITLE10=Waltz for love
TTITLE11=Drivin’
TTITLE12=BYE
TTITLE13=to believe
TTITLE14=いつも いつも
EXTD=
EXTT0=
EXTT1=
EXTT2=
EXTT3=
EXTT4=
EXTT5=
EXTT6=
EXTT7=
EXTT8=
EXTT9=
EXTT10=
EXTT11=
EXTT12=
EXTT13=
EXTT14=
PLAYORDER=
